<svg width="30" height="29" viewBox="0 0 30 29" fill="none" xmlns="http://www.w3.org/2000/svg">
<path d="M27 6C27.87 6 28.575 6.3 29.13 6.885C29.7 7.5 30 8.175 30 9V25.5C30 26.325 29.7 27 29.13 27.615C28.575 28.2 27.87 28.5 27 28.5H3C2.13 28.5 1.425 28.2 0.87 27.615C0.3 27 0 26.325 0 25.5V9C0 8.175 0.3 7.5 0.87 6.885C1.425 6.3 2.13 6 3 6H9V3C9 2.13 9.3 1.425 9.87 0.87C10.425 0.3 11.13 0 12 0H18C18.87 0 19.575 0.3 20.13 0.87C20.7 1.425 21 2.13 21 3V6H27ZM3 9V25.5H27V9H3ZM18 6V3H12V6H18Z" fill="white"/>
</svg>
