<svg width="36" height="36" viewBox="0 0 36 36" fill="none" xmlns="http://www.w3.org/2000/svg">
<path d="M4.08731 31.5C3.81231 31.5 3.56231 31.4315 3.33731 31.2945C3.11231 31.1575 2.93731 30.976 2.81231 30.75C2.68731 30.524 2.61881 30.28 2.60681 30.018C2.59481 29.756 2.66331 29.5 2.81231 29.25L16.6873 5.25C16.8373 5 17.0313 4.8125 17.2693 4.6875C17.5073 4.5625 17.7508 4.5 17.9998 4.5C18.2488 4.5 18.4928 4.5625 18.7318 4.6875C18.9708 4.8125 19.1643 5 19.3123 5.25L33.1873 29.25C33.3373 29.5 33.4063 29.7565 33.3943 30.0195C33.3823 30.2825 33.3133 30.526 33.1873 30.75C33.0613 30.974 32.8863 31.1555 32.6623 31.2945C32.4383 31.4335 32.1883 31.502 31.9123 31.5H4.08731ZM6.67481 28.5H29.3248L17.9998 9L6.67481 28.5ZM17.9998 27C18.4248 27 18.7813 26.856 19.0693 26.568C19.3573 26.28 19.5008 25.924 19.4998 25.5C19.4988 25.076 19.3548 24.72 19.0678 24.432C18.7808 24.144 18.4248 24 17.9998 24C17.5748 24 17.2188 24.144 16.9318 24.432C16.6448 24.72 16.5008 25.076 16.4998 25.5C16.4988 25.924 16.6428 26.2805 16.9318 26.5695C17.2208 26.8585 17.5768 27.002 17.9998 27ZM17.9998 22.5C18.4248 22.5 18.7813 22.356 19.0693 22.068C19.3573 21.78 19.5008 21.424 19.4998 21V16.5C19.4998 16.075 19.3558 15.719 19.0678 15.432C18.7798 15.145 18.4238 15.001 17.9998 15C17.5758 14.999 17.2198 15.143 16.9318 15.432C16.6438 15.721 16.4998 16.077 16.4998 16.5V21C16.4998 21.425 16.6438 21.7815 16.9318 22.0695C17.2198 22.3575 17.5758 22.501 17.9998 22.5Z" fill="white"/>
</svg>
