<svg width="36" height="36" viewBox="0 0 36 36" fill="none" xmlns="http://www.w3.org/2000/svg">
<path d="M32.8799 9.93C32.7277 9.56348 32.4364 9.27221 32.0699 9.12C31.8896 9.04314 31.6959 9.00237 31.4999 9H23.9999C23.6021 9 23.2206 9.15804 22.9392 9.43934C22.6579 9.72064 22.4999 10.1022 22.4999 10.5C22.4999 10.8978 22.6579 11.2794 22.9392 11.5607C23.2206 11.842 23.6021 12 23.9999 12H27.8849L19.4999 20.385L14.5649 15.435C14.4255 15.2944 14.2596 15.1828 14.0768 15.1067C13.894 15.0305 13.6979 14.9913 13.4999 14.9913C13.3019 14.9913 13.1058 15.0305 12.923 15.1067C12.7403 15.1828 12.5744 15.2944 12.4349 15.435L3.43491 24.435C3.29432 24.5744 3.18272 24.7403 3.10657 24.9231C3.03042 25.1059 2.99121 25.302 2.99121 25.5C2.99121 25.698 3.03042 25.8941 3.10657 26.0769C3.18272 26.2597 3.29432 26.4256 3.43491 26.565C3.57435 26.7056 3.74025 26.8172 3.92304 26.8933C4.10583 26.9695 4.30189 27.0087 4.49991 27.0087C4.69793 27.0087 4.89398 26.9695 5.07677 26.8933C5.25956 26.8172 5.42546 26.7056 5.56491 26.565L13.4999 18.615L18.4349 23.565C18.5744 23.7056 18.7403 23.8172 18.923 23.8933C19.1058 23.9695 19.3019 24.0087 19.4999 24.0087C19.6979 24.0087 19.894 23.9695 20.0768 23.8933C20.2596 23.8172 20.4255 23.7056 20.5649 23.565L29.9999 14.115V18C29.9999 18.3978 30.1579 18.7794 30.4392 19.0607C30.7206 19.342 31.1021 19.5 31.4999 19.5C31.8977 19.5 32.2793 19.342 32.5606 19.0607C32.8419 18.7794 32.9999 18.3978 32.9999 18V10.5C32.9975 10.304 32.9568 10.1103 32.8799 9.93Z" fill="white"/>
</svg>
