<svg width="36" height="36" viewBox="0 0 36 36" fill="none" xmlns="http://www.w3.org/2000/svg">
<path d="M31.5 26.25C31.5 27.6424 30.9469 28.9777 29.9623 29.9623C28.9777 30.9469 27.6424 31.5 26.25 31.5C24.8576 31.5 23.5223 30.9469 22.5377 29.9623C21.5531 28.9777 21 27.6424 21 26.25C21 24.8576 21.5531 23.5223 22.5377 22.5377C23.5223 21.5531 24.8576 21 26.25 21C27.6424 21 28.9777 21.5531 29.9623 22.5377C30.9469 23.5223 31.5 24.8576 31.5 26.25Z" stroke="#F5F5F7" stroke-width="3"/>
<path d="M26.25 21H9.75C8.35761 21 7.02226 21.5531 6.03769 22.5377C5.05312 23.5223 4.5 24.8576 4.5 26.25C4.5 27.6424 5.05312 28.9777 6.03769 29.9623C7.02226 30.9469 8.35761 31.5 9.75 31.5H26.25C27.6424 31.5 28.9777 30.9469 29.9623 29.9623C30.9469 28.9777 31.5 27.6424 31.5 26.25C31.5 24.8576 30.9469 23.5223 29.9623 22.5377C28.9777 21.5531 27.6424 21 26.25 21ZM4.5 9.75C4.5 10.4394 4.6358 11.1221 4.89963 11.7591C5.16347 12.396 5.55018 12.9748 6.03769 13.4623C6.5252 13.9498 7.10395 14.3365 7.74091 14.6004C8.37787 14.8642 9.06056 15 9.75 15C10.4394 15 11.1221 14.8642 11.7591 14.6004C12.396 14.3365 12.9748 13.9498 13.4623 13.4623C13.9498 12.9748 14.3365 12.396 14.6004 11.7591C14.8642 11.1221 15 10.4394 15 9.75C15 8.35761 14.4469 7.02226 13.4623 6.03769C12.4777 5.05312 11.1424 4.5 9.75 4.5C8.35761 4.5 7.02226 5.05312 6.03769 6.03769C5.05312 7.02226 4.5 8.35761 4.5 9.75Z" stroke="#F5F5F7" stroke-width="3"/>
<path d="M9.75 4.5H26.25C26.9394 4.5 27.6221 4.6358 28.2591 4.89963C28.896 5.16347 29.4748 5.55018 29.9623 6.03769C30.4498 6.5252 30.8365 7.10395 31.1004 7.74091C31.3642 8.37787 31.5 9.06056 31.5 9.75C31.5 10.4394 31.3642 11.1221 31.1004 11.7591C30.8365 12.396 30.4498 12.9748 29.9623 13.4623C29.4748 13.9498 28.896 14.3365 28.2591 14.6004C27.6221 14.8642 26.9394 15 26.25 15H9.75C9.06056 15 8.37787 14.8642 7.74091 14.6004C7.10395 14.3365 6.5252 13.9498 6.03769 13.4623C5.55018 12.9748 5.16347 12.396 4.89963 11.7591C4.6358 11.1221 4.5 10.4394 4.5 9.75C4.5 9.06056 4.6358 8.37787 4.89963 7.74091C5.16347 7.10395 5.55018 6.5252 6.03769 6.03769C6.5252 5.55018 7.10395 5.16347 7.74091 4.89963C8.37787 4.6358 9.06056 4.5 9.75 4.5Z" stroke="#F5F5F7" stroke-width="3"/>
</svg>
