<svg width="36" height="36" viewBox="0 0 36 36" fill="none" xmlns="http://www.w3.org/2000/svg">
<path d="M19.5 12V6C19.5 5.575 19.644 5.219 19.932 4.932C20.22 4.645 20.576 4.501 21 4.5H30C30.425 4.5 30.7815 4.644 31.0695 4.932C31.3575 5.22 31.501 5.576 31.5 6V12C31.5 12.425 31.356 12.7815 31.068 13.0695C30.78 13.3575 30.424 13.501 30 13.5H21C20.575 13.5 20.219 13.356 19.932 13.068C19.645 12.78 19.501 12.424 19.5 12ZM4.5 18V6C4.5 5.575 4.644 5.219 4.932 4.932C5.22 4.645 5.576 4.501 6 4.5H15C15.425 4.5 15.7815 4.644 16.0695 4.932C16.3575 5.22 16.501 5.576 16.5 6V18C16.5 18.425 16.356 18.7815 16.068 19.0695C15.78 19.3575 15.424 19.501 15 19.5H6C5.575 19.5 5.219 19.356 4.932 19.068C4.645 18.78 4.501 18.424 4.5 18ZM19.5 30V18C19.5 17.575 19.644 17.219 19.932 16.932C20.22 16.645 20.576 16.501 21 16.5H30C30.425 16.5 30.7815 16.644 31.0695 16.932C31.3575 17.22 31.501 17.576 31.5 18V30C31.5 30.425 31.356 30.7815 31.068 31.0695C30.78 31.3575 30.424 31.501 30 31.5H21C20.575 31.5 20.219 31.356 19.932 31.068C19.645 30.78 19.501 30.424 19.5 30ZM4.5 30V24C4.5 23.575 4.644 23.219 4.932 22.932C5.22 22.645 5.576 22.501 6 22.5H15C15.425 22.5 15.7815 22.644 16.0695 22.932C16.3575 23.22 16.501 23.576 16.5 24V30C16.5 30.425 16.356 30.7815 16.068 31.0695C15.78 31.3575 15.424 31.501 15 31.5H6C5.575 31.5 5.219 31.356 4.932 31.068C4.645 30.78 4.501 30.424 4.5 30ZM7.5 16.5H13.5V7.5H7.5V16.5ZM22.5 28.5H28.5V19.5H22.5V28.5ZM22.5 10.5H28.5V7.5H22.5V10.5ZM7.5 28.5H13.5V25.5H7.5V28.5Z" fill="white"/>
</svg>
