<svg width="37" height="37" viewBox="0 0 37 37" fill="none" xmlns="http://www.w3.org/2000/svg">
<path d="M14.8971 11.2918C9.96 7.92321 5.35714 10.4946 1.5 14.4546L10.0371 19.5975M25.1314 21.5261C28.5 26.4632 25.9286 31.0661 21.9686 34.9232L16.8257 26.3861" stroke="white" stroke-width="3" stroke-linecap="round" stroke-linejoin="round"/>
<path d="M13.7914 13.1175L23.3057 22.6317M10.0371 19.5717L16.8514 26.386C22.3028 23.1203 28.5 19.9575 31.3285 17.026C37.4485 10.906 33.9 2.52316 33.9 2.52316C33.9 2.52316 25.5171 -1.02541 19.3971 5.09459C16.4657 7.92316 13.2771 14.146 10.0371 19.5717Z" stroke="white" stroke-width="3" stroke-linecap="round" stroke-linejoin="round"/>
<path d="M27.2143 10.4945C27.5553 10.4945 27.8823 10.3591 28.1234 10.1179C28.3645 9.87683 28.5 9.5498 28.5 9.20881C28.5 8.86782 28.3645 8.54079 28.1234 8.29967C27.8823 8.05855 27.5553 7.9231 27.2143 7.9231C26.8733 7.9231 26.5463 8.05855 26.3051 8.29967C26.064 8.54079 25.9286 8.86782 25.9286 9.20881C25.9286 9.5498 26.064 9.87683 26.3051 10.1179C26.5463 10.3591 26.8733 10.4945 27.2143 10.4945ZM9.67714 32.1974C8.18571 33.6374 1.5 34.9231 1.5 34.9231C1.5 34.9231 2.78571 28.2374 4.22571 26.746C4.75823 26.1767 5.45065 25.7819 6.21182 25.6138C6.973 25.4456 7.76726 25.5119 8.49005 25.8038C9.21284 26.0958 9.83029 26.5998 10.2611 27.2494C10.692 27.8991 10.916 28.6639 10.9037 29.4434C10.8943 29.9608 10.7809 30.4711 10.5701 30.9438C10.3594 31.4165 10.0557 31.8445 9.67714 32.1974Z" stroke="white" stroke-width="3" stroke-linecap="round" stroke-linejoin="round"/>
</svg>
