<svg width="36" height="36" viewBox="0 0 36 36" fill="none" xmlns="http://www.w3.org/2000/svg">
<path d="M21.0598 22.2945L19.7308 26.943C19.2328 28.683 16.7668 28.683 16.2688 26.943L14.9413 22.2945C14.8572 22.0005 14.6996 21.7327 14.4834 21.5164C14.2671 21.3002 13.9993 21.1426 13.7053 21.0585L9.05677 19.731C7.31677 19.233 7.31677 16.767 9.05677 16.269L13.7053 14.9415C13.9993 14.8575 14.2671 14.6999 14.4834 14.4836C14.6996 14.2674 14.8572 13.9996 14.9413 13.7055L16.2688 9.05702C16.7668 7.31702 19.2328 7.31702 19.7308 9.05702L21.0583 13.7055C21.1423 13.9996 21.2999 14.2674 21.5162 14.4836C21.7324 14.6999 22.0002 14.8575 22.2943 14.9415L26.9428 16.269C28.6828 16.767 28.6828 19.233 26.9428 19.731L22.2943 21.0585C22.0002 21.1426 21.7324 21.3002 21.5162 21.5164C21.2999 21.7327 21.1423 22.0005 21.0583 22.2945M29.3548 29.574L28.7908 31.836C28.7158 32.139 28.2853 32.139 28.2088 31.836L27.6433 29.574C27.63 29.5215 27.6028 29.4736 27.5645 29.4353C27.5262 29.397 27.4783 29.3698 27.4258 29.3565L25.1638 28.791C24.8608 28.716 24.8608 28.2855 25.1638 28.209L27.4258 27.6435C27.4783 27.6303 27.5262 27.6031 27.5645 27.5648C27.6028 27.5265 27.63 27.4785 27.6433 27.426L28.2088 25.164C28.2838 24.861 28.7143 24.861 28.7908 25.164L29.3563 27.426C29.3695 27.4785 29.3967 27.5265 29.435 27.5648C29.4733 27.6031 29.5213 27.6303 29.5738 27.6435L31.8358 28.209C32.1388 28.284 32.1388 28.7145 31.8358 28.791L29.5738 29.3565C29.5213 29.3698 29.4733 29.397 29.435 29.4353C29.3967 29.4736 29.368 29.5215 29.3548 29.574ZM8.35477 8.57402L7.79077 10.836C7.71577 11.139 7.28377 11.139 7.20877 10.836L6.64327 8.57402C6.63003 8.52151 6.60281 8.47356 6.56452 8.43527C6.52623 8.39698 6.47828 8.36976 6.42577 8.35652L4.16377 7.79102C3.86077 7.71602 3.86077 7.28402 4.16377 7.20902L6.42577 6.64352C6.47828 6.63027 6.52623 6.60306 6.56452 6.56476C6.60281 6.52647 6.63003 6.47853 6.64327 6.42602L7.20877 4.16402C7.28377 3.86102 7.71577 3.86102 7.79077 4.16402L8.35627 6.42602C8.36952 6.47853 8.39673 6.52647 8.43503 6.56476C8.47332 6.60306 8.52126 6.63027 8.57377 6.64352L10.8358 7.20902C11.1388 7.28402 11.1388 7.71602 10.8358 7.79102L8.57377 8.35652C8.52126 8.36976 8.47332 8.39698 8.43503 8.43527C8.39673 8.47356 8.36802 8.52151 8.35477 8.57402Z" stroke="white" stroke-width="3" stroke-miterlimit="10" stroke-linecap="round" stroke-linejoin="round"/>
</svg>
