<svg width="36" height="36" viewBox="0 0 36 36" fill="none" xmlns="http://www.w3.org/2000/svg">
<path d="M4.49984 12.375C4.49968 11.0697 4.82398 9.78485 5.44356 8.63599C6.06314 7.48712 6.95858 6.51028 8.04934 5.79333C9.14009 5.07637 10.392 4.64178 11.6923 4.52866C12.9927 4.41553 14.3008 4.62741 15.499 5.14524C16.6972 5.66307 17.7478 6.4706 18.5565 7.49522C19.3652 8.51983 19.9065 9.72938 20.1317 11.0151C20.357 12.3008 20.2591 13.6223 19.8469 14.8608C19.4347 16.0993 18.7211 17.2159 17.7703 18.1102C19.5629 18.9805 21.1193 20.2701 22.3077 21.8697C23.496 23.4693 24.2812 25.3317 24.5968 27.2992C24.6316 27.5182 24.6228 27.7418 24.5711 27.9574C24.5194 28.173 24.4257 28.3762 24.2955 28.5556C24.1652 28.735 24.0009 28.8869 23.8119 29.0028C23.6229 29.1186 23.4129 29.1961 23.194 29.2309C22.975 29.2656 22.7514 29.2568 22.5358 29.2051C22.3202 29.1534 22.117 29.0598 21.9376 28.9295C21.7582 28.7992 21.6063 28.6349 21.4904 28.4459C21.3746 28.2569 21.2971 28.0469 21.2623 27.828C20.9249 25.7137 19.8447 23.7889 18.2158 22.3994C16.5869 21.0099 14.5159 20.2466 12.3748 20.2466C10.2338 20.2466 8.16283 21.0099 6.53392 22.3994C4.905 23.7889 3.82482 25.7137 3.48734 27.828C3.45248 28.0469 3.37483 28.2569 3.25883 28.4458C3.14283 28.6347 2.99075 28.799 2.81128 28.9292C2.63181 29.0593 2.42845 29.1529 2.21283 29.2044C1.99721 29.256 1.77354 29.2646 1.55459 29.2297C1.33565 29.1949 1.12571 29.1172 0.936774 29.0012C0.747837 28.8852 0.583597 28.7332 0.453433 28.5537C0.323268 28.3742 0.229728 28.1709 0.178153 27.9552C0.126577 27.7396 0.117977 27.5159 0.152843 27.297C0.467331 25.3296 1.25218 23.4673 2.44068 21.8683C3.62917 20.2692 5.18618 18.9808 6.97934 18.1125C6.19635 17.376 5.57242 16.487 5.14599 15.5003C4.71957 14.5135 4.49967 13.4499 4.49984 12.375ZM24.7498 8.99999C26.0571 9.00091 27.336 9.38128 28.4313 10.095C29.5266 10.8086 30.3912 11.8249 30.9201 13.0204C31.449 14.2159 31.6195 15.5392 31.4108 16.8298C31.2022 18.1203 30.6235 19.3225 29.7448 20.2905C31.1151 20.9693 32.3326 21.9204 33.323 23.0856C34.3134 24.2508 35.0558 25.6057 35.5048 27.0675C35.594 27.3511 35.6066 27.6534 35.5412 27.9434C35.4759 28.2335 35.3349 28.5011 35.1327 28.7191C34.9305 28.9371 34.6742 29.0977 34.3898 29.1846C34.1054 29.2715 33.8031 29.2817 33.5136 29.214C33.2241 29.147 32.9574 29.0048 32.7405 28.8018C32.5236 28.5987 32.3642 28.3419 32.2783 28.0575C31.8745 26.7533 31.1394 25.5761 30.1449 24.6407C29.1504 23.7053 27.9303 23.0437 26.6038 22.7205C26.2354 22.6315 25.9076 22.4211 25.6733 22.1232C25.439 21.8252 25.3119 21.457 25.3123 21.078V20.286C25.3121 19.9718 25.3997 19.6638 25.565 19.3967C25.7304 19.1296 25.967 18.9139 26.2483 18.774C26.9305 18.4359 27.4782 17.8772 27.8027 17.1885C28.1272 16.4999 28.2093 15.7217 28.0358 14.9805C27.8622 14.2392 27.4431 13.5784 26.8466 13.1055C26.25 12.6325 25.5111 12.375 24.7498 12.375C24.3023 12.375 23.8731 12.1972 23.5566 11.8807C23.2401 11.5643 23.0623 11.135 23.0623 10.6875C23.0623 10.2399 23.2401 9.81072 23.5566 9.49425C23.8731 9.17778 24.3023 8.99999 24.7498 8.99999ZM12.3748 7.87499C11.7756 7.86144 11.1796 7.96775 10.622 8.18768C10.0644 8.40761 9.55637 8.73672 9.1277 9.1557C8.69904 9.57468 8.35839 10.0751 8.12578 10.6275C7.89316 11.18 7.77326 11.7733 7.77311 12.3727C7.77296 12.9721 7.89256 13.5655 8.1249 14.1181C8.35725 14.6707 8.69764 15.1712 9.12609 15.5904C9.55455 16.0096 10.0624 16.339 10.6199 16.5592C11.1774 16.7794 11.7733 16.886 12.3726 16.8727C13.5484 16.8467 14.6672 16.3615 15.4897 15.5209C16.3121 14.6802 16.7728 13.551 16.7731 12.375C16.7734 11.1989 16.3133 10.0695 15.4912 9.22844C14.6692 8.3874 13.5506 7.90158 12.3748 7.87499Z" fill="white"/>
</svg>
