<svg width="36" height="36" viewBox="0 0 36 36" fill="none" xmlns="http://www.w3.org/2000/svg">
<path d="M9 33C8.20435 33 7.44129 32.6839 6.87868 32.1213C6.31607 31.5587 6 30.7957 6 30V6C6 5.20436 6.31607 4.44129 6.87868 3.87868C7.44129 3.31608 8.20435 3 9 3H21C21.4748 2.99924 21.9451 3.09241 22.3838 3.27416C22.8225 3.45591 23.2208 3.72264 23.556 4.059L28.938 9.44101C29.2753 9.77626 29.5428 10.175 29.725 10.6142C29.9073 11.0535 30.0008 11.5245 30 12V30C30 30.7957 29.6839 31.5587 29.1213 32.1213C28.5587 32.6839 27.7956 33 27 33H9Z" stroke="white" stroke-width="3" stroke-linecap="round" stroke-linejoin="round"/>
<path d="M21 3V10.5C21 10.8978 21.158 11.2794 21.4393 11.5607C21.7206 11.842 22.1022 12 22.5 12H30M12 19.5H15M21 19.5H24M12 25.5H15M21 25.5H24" stroke="white" stroke-width="3" stroke-linecap="round" stroke-linejoin="round"/>
</svg>
