<svg width="36" height="36" viewBox="0 0 36 36" fill="none" xmlns="http://www.w3.org/2000/svg">
<path d="M18 32.85C17.825 32.85 17.6625 32.8375 17.5125 32.8125C17.3625 32.7875 17.2125 32.75 17.0625 32.7C13.6875 31.575 11 29.494 9 26.457C7 23.42 6 20.151 6 16.65V9.56248C6 8.93748 6.1815 8.37498 6.5445 7.87498C6.9075 7.37498 7.376 7.01248 7.95 6.78748L16.95 3.41248C17.3 3.28748 17.65 3.22498 18 3.22498C18.35 3.22498 18.7 3.28748 19.05 3.41248L28.05 6.78748C28.625 7.01248 29.094 7.37498 29.457 7.87498C29.82 8.37498 30.001 8.93748 30 9.56248V16.65C30 20.15 29 23.419 27 26.457C25 29.495 22.3125 31.576 18.9375 32.7C18.7875 32.75 18.6375 32.7875 18.4875 32.8125C18.3375 32.8375 18.175 32.85 18 32.85ZM18 29.85C20.6 29.025 22.75 27.375 24.45 24.9C26.15 22.425 27 19.675 27 16.65V9.56248L18 6.18748L9 9.56248V16.65C9 19.675 9.85 22.425 11.55 24.9C13.25 27.375 15.4 29.025 18 29.85Z" fill="white"/>
</svg>
