<svg width="64" height="58" viewBox="0 0 64 58" fill="none" xmlns="http://www.w3.org/2000/svg">
<g filter="url(#filter0_d_665_163)">
<rect x="12" y="12" width="40" height="34" rx="10" fill="white" shape-rendering="crispEdges"/>
<rect x="12" y="12" width="40" height="34" rx="10" fill="url(#paint0_linear_665_163)" fill-opacity="0.38" shape-rendering="crispEdges"/>
<path d="M27.4778 35.234C26.7338 35.234 26.0618 35.066 25.4618 34.73C24.8678 34.388 24.3548 33.917 23.9228 33.317C23.4908 32.717 23.1608 32.024 22.9328 31.238C22.7048 30.446 22.5908 29.6 22.5908 28.7C22.5908 27.8 22.7048 26.954 22.9328 26.162C23.1608 25.37 23.4908 24.677 23.9228 24.083C24.3548 23.483 24.8678 23.015 25.4618 22.679C26.0618 22.337 26.7338 22.166 27.4778 22.166C28.2098 22.166 28.8758 22.337 29.4758 22.679C30.0758 23.015 30.5858 23.483 31.0058 24.083C31.4318 24.677 31.7588 25.37 31.9868 26.162C32.2148 26.954 32.3288 27.8 32.3288 28.7C32.3288 29.6 32.2148 30.446 31.9868 31.238C31.7588 32.024 31.4318 32.717 31.0058 33.317C30.5858 33.917 30.0758 34.388 29.4758 34.73C28.8758 35.066 28.2098 35.234 27.4778 35.234ZM27.4778 33.362C28.1678 33.362 28.7408 33.146 29.1968 32.714C29.6588 32.276 30.0038 31.703 30.2318 30.995C30.4598 30.287 30.5738 29.522 30.5738 28.7C30.5738 27.836 30.4538 27.053 30.2138 26.351C29.9798 25.643 29.6318 25.082 29.1698 24.668C28.7138 24.248 28.1498 24.038 27.4778 24.038C26.9438 24.038 26.4788 24.164 26.0828 24.416C25.6928 24.668 25.3688 25.013 25.1108 25.451C24.8588 25.889 24.6668 26.387 24.5348 26.945C24.4088 27.503 24.3458 28.088 24.3458 28.7C24.3458 29.522 24.4628 30.287 24.6968 30.995C24.9308 31.703 25.2788 32.276 25.7408 32.714C26.2088 33.146 26.7878 33.362 27.4778 33.362ZM37.3973 35.234C36.6353 35.234 35.9513 35.057 35.3453 34.703C34.7453 34.349 34.2713 33.875 33.9233 33.281C33.5753 32.687 33.4013 32.027 33.4013 31.301H35.2733C35.2733 31.679 35.3633 32.024 35.5433 32.336C35.7233 32.648 35.9723 32.897 36.2903 33.083C36.6083 33.269 36.9773 33.362 37.3973 33.362C37.7753 33.362 38.1263 33.269 38.4503 33.083C38.7743 32.897 39.0353 32.648 39.2333 32.336C39.4313 32.024 39.5303 31.679 39.5303 31.301C39.5303 30.821 39.4043 30.419 39.1523 30.095C38.9003 29.771 38.5493 29.531 38.0993 29.375C37.6553 29.213 37.1423 29.132 36.5603 29.132V27.656C37.3523 27.656 37.9853 27.5 38.4593 27.188C38.9333 26.876 39.1703 26.411 39.1703 25.793C39.1703 25.469 39.0833 25.175 38.9093 24.911C38.7413 24.641 38.5163 24.428 38.2343 24.272C37.9583 24.11 37.6613 24.029 37.3433 24.029C37.0133 24.029 36.6953 24.11 36.3893 24.272C36.0893 24.428 35.8433 24.641 35.6513 24.911C35.4593 25.175 35.3633 25.469 35.3633 25.793H33.4913C33.4913 25.295 33.5933 24.827 33.7973 24.389C34.0073 23.945 34.2893 23.558 34.6433 23.228C35.0033 22.892 35.4113 22.631 35.8673 22.445C36.3293 22.253 36.8123 22.157 37.3163 22.157C37.9763 22.157 38.5883 22.322 39.1523 22.652C39.7223 22.976 40.1783 23.414 40.5203 23.966C40.8683 24.512 41.0423 25.121 41.0423 25.793C41.0423 26.327 40.9103 26.834 40.6463 27.314C40.3883 27.788 40.0283 28.124 39.5663 28.322C39.9683 28.466 40.3043 28.694 40.5743 29.006C40.8503 29.312 41.0573 29.666 41.1953 30.068C41.3333 30.464 41.4023 30.875 41.4023 31.301C41.4023 32.021 41.2193 32.681 40.8533 33.281C40.4873 33.875 39.9983 34.349 39.3863 34.703C38.7803 35.057 38.1173 35.234 37.3973 35.234Z" fill="#C64811"/>
</g>
<defs>
<filter id="filter0_d_665_163" x="0" y="0" width="64" height="58" filterUnits="userSpaceOnUse" color-interpolation-filters="sRGB">
<feFlood flood-opacity="0" result="BackgroundImageFix"/>
<feColorMatrix in="SourceAlpha" type="matrix" values="0 0 0 0 0 0 0 0 0 0 0 0 0 0 0 0 0 0 127 0" result="hardAlpha"/>
<feOffset/>
<feGaussianBlur stdDeviation="6"/>
<feComposite in2="hardAlpha" operator="out"/>
<feColorMatrix type="matrix" values="0 0 0 0 0.776471 0 0 0 0 0.282353 0 0 0 0 0.0666667 0 0 0 1 0"/>
<feBlend mode="normal" in2="BackgroundImageFix" result="effect1_dropShadow_665_163"/>
<feBlend mode="normal" in="SourceGraphic" in2="effect1_dropShadow_665_163" result="shape"/>
</filter>
<linearGradient id="paint0_linear_665_163" x1="28.4913" y1="55.7143" x2="36.0398" y2="25.7772" gradientUnits="userSpaceOnUse">
<stop stop-opacity="0"/>
<stop offset="1" stop-color="#C64811"/>
</linearGradient>
</defs>
</svg>
