<svg width="65" height="58" viewBox="0 0 65 58" fill="none" xmlns="http://www.w3.org/2000/svg">
<g filter="url(#filter0_d_665_152)">
<rect x="12" y="12" width="41" height="34" rx="10" fill="white" shape-rendering="crispEdges"/>
<rect x="12" y="12" width="41" height="34" rx="10" fill="url(#paint0_linear_665_152)" fill-opacity="0.38" shape-rendering="crispEdges"/>
<path d="M27.468 35.234C26.724 35.234 26.052 35.066 25.452 34.73C24.858 34.388 24.345 33.917 23.913 33.317C23.481 32.717 23.151 32.024 22.923 31.238C22.695 30.446 22.581 29.6 22.581 28.7C22.581 27.8 22.695 26.954 22.923 26.162C23.151 25.37 23.481 24.677 23.913 24.083C24.345 23.483 24.858 23.015 25.452 22.679C26.052 22.337 26.724 22.166 27.468 22.166C28.2 22.166 28.866 22.337 29.466 22.679C30.066 23.015 30.576 23.483 30.996 24.083C31.422 24.677 31.749 25.37 31.977 26.162C32.205 26.954 32.319 27.8 32.319 28.7C32.319 29.6 32.205 30.446 31.977 31.238C31.749 32.024 31.422 32.717 30.996 33.317C30.576 33.917 30.066 34.388 29.466 34.73C28.866 35.066 28.2 35.234 27.468 35.234ZM27.468 33.362C28.158 33.362 28.731 33.146 29.187 32.714C29.649 32.276 29.994 31.703 30.222 30.995C30.45 30.287 30.564 29.522 30.564 28.7C30.564 27.836 30.444 27.053 30.204 26.351C29.97 25.643 29.622 25.082 29.16 24.668C28.704 24.248 28.14 24.038 27.468 24.038C26.934 24.038 26.469 24.164 26.073 24.416C25.683 24.668 25.359 25.013 25.101 25.451C24.849 25.889 24.657 26.387 24.525 26.945C24.399 27.503 24.336 28.088 24.336 28.7C24.336 29.522 24.453 30.287 24.687 30.995C24.921 31.703 25.269 32.276 25.731 32.714C26.199 33.146 26.778 33.362 27.468 33.362ZM33.5716 35V33.335C33.9976 32.981 34.4866 32.57 35.0386 32.102C35.5906 31.628 36.1516 31.127 36.7216 30.599C37.2916 30.065 37.8166 29.534 38.2966 29.006C38.7766 28.472 39.1636 27.968 39.4576 27.494C39.7576 27.014 39.9076 26.597 39.9076 26.243C39.9076 25.841 39.8086 25.475 39.6106 25.145C39.4186 24.809 39.1576 24.542 38.8276 24.344C38.4976 24.14 38.1316 24.038 37.7296 24.038C37.3276 24.038 36.9586 24.14 36.6226 24.344C36.2926 24.542 36.0256 24.809 35.8216 25.145C35.6236 25.475 35.5246 25.841 35.5246 26.243H33.6526C33.6526 25.481 33.8386 24.794 34.2106 24.182C34.5886 23.564 35.0836 23.075 35.6956 22.715C36.3136 22.349 36.9916 22.166 37.7296 22.166C38.4736 22.166 39.1516 22.349 39.7636 22.715C40.3756 23.081 40.8646 23.573 41.2306 24.191C41.5966 24.803 41.7796 25.487 41.7796 26.243C41.7796 26.663 41.6926 27.095 41.5186 27.539C41.3446 27.983 41.1016 28.436 40.7896 28.898C40.4836 29.36 40.1266 29.828 39.7186 30.302C39.3106 30.776 38.8726 31.25 38.4046 31.724C37.9366 32.198 37.4596 32.666 36.9736 33.128H41.8876V35H33.5716Z" fill="#C64811"/>
</g>
<defs>
<filter id="filter0_d_665_152" x="0" y="0" width="65" height="58" filterUnits="userSpaceOnUse" color-interpolation-filters="sRGB">
<feFlood flood-opacity="0" result="BackgroundImageFix"/>
<feColorMatrix in="SourceAlpha" type="matrix" values="0 0 0 0 0 0 0 0 0 0 0 0 0 0 0 0 0 0 127 0" result="hardAlpha"/>
<feOffset/>
<feGaussianBlur stdDeviation="6"/>
<feComposite in2="hardAlpha" operator="out"/>
<feColorMatrix type="matrix" values="0 0 0 0 0.776471 0 0 0 0 0.282353 0 0 0 0 0.0666667 0 0 0 1 0"/>
<feBlend mode="normal" in2="BackgroundImageFix" result="effect1_dropShadow_665_152"/>
<feBlend mode="normal" in="SourceGraphic" in2="effect1_dropShadow_665_152" result="shape"/>
</filter>
<linearGradient id="paint0_linear_665_152" x1="28.9036" y1="55.7143" x2="36.2892" y2="25.6908" gradientUnits="userSpaceOnUse">
<stop stop-opacity="0"/>
<stop offset="1" stop-color="#C64811"/>
</linearGradient>
</defs>
</svg>
