<svg width="36" height="36" viewBox="0 0 36 36" fill="none" xmlns="http://www.w3.org/2000/svg">
<path d="M30.8966 16.5066C30.8368 16.2391 30.7127 15.9902 30.535 15.7815C30.3574 15.5727 30.1316 15.4104 29.8771 15.3085L22.6799 12.4299L24.1691 2.50036C24.2238 2.1438 24.1628 1.77911 23.995 1.45977C23.8272 1.14044 23.5615 0.883267 23.2369 0.725984C22.9123 0.568702 22.5458 0.519584 22.1912 0.585836C21.8366 0.652089 21.5126 0.830224 21.2666 1.09411L5.51662 17.9691C5.3294 18.1696 5.19388 18.4127 5.1218 18.6774C5.04972 18.9421 5.04325 19.2203 5.10295 19.4881C5.16264 19.7558 5.28671 20.0049 5.4644 20.2139C5.64209 20.4229 5.86805 20.5854 6.12271 20.6874L13.3199 23.566L11.8307 33.4997C11.776 33.8563 11.837 34.221 12.0048 34.5403C12.1726 34.8597 12.4383 35.1168 12.7629 35.2741C13.0875 35.4314 13.454 35.4805 13.8086 35.4143C14.1632 35.348 14.4872 35.1699 14.7332 34.906L30.4832 18.031C30.6712 17.8299 30.8072 17.5859 30.8793 17.3202C30.9513 17.0545 30.9573 16.7752 30.8966 16.5066ZM15.9749 28.6243L16.8566 22.7504C16.913 22.3744 16.8407 21.9905 16.6516 21.6607C16.4625 21.3309 16.1675 21.0747 15.8146 20.9335L9.66646 18.474L20.0249 7.37583L19.1432 13.2497C19.0868 13.6257 19.1591 14.0096 19.3482 14.3394C19.5373 14.6692 19.8323 14.9254 20.1852 15.0666L26.3333 17.5261L15.9749 28.6243Z" fill="white"/>
</svg>
